<svg width="17" height="17" viewBox="0 0 17 17" fill="none" xmlns="http://www.w3.org/2000/svg">
<g clip-path="url(#clip0_523_9)">
<path d="M8.80001 3.16245C7.74518 3.16245 6.71403 3.47524 5.83697 4.06127C4.95991 4.64731 4.27632 5.48026 3.87265 6.4548C3.46899 7.42934 3.36337 8.5017 3.56916 9.53626C3.77494 10.5708 4.28289 11.5211 5.02877 12.267C5.77465 13.0129 6.72496 13.5208 7.75953 13.7266C8.7941 13.9324 9.86645 13.8268 10.841 13.4231C11.8155 13.0195 12.6485 12.3359 13.2345 11.4588C13.8205 10.5818 14.1333 9.55061 14.1333 8.49578C14.1333 7.08129 13.5714 5.72474 12.5712 4.72454C11.5711 3.72435 10.2145 3.16245 8.80001 3.16245ZM7.91112 5.45133C7.91112 5.27553 7.96325 5.10367 8.06093 4.95749C8.1586 4.81132 8.29742 4.69739 8.45985 4.63011C8.62227 4.56283 8.801 4.54523 8.97342 4.57953C9.14585 4.61382 9.30424 4.69848 9.42855 4.82279C9.55286 4.94711 9.63752 5.10549 9.67182 5.27792C9.70612 5.45035 9.68852 5.62907 9.62124 5.7915C9.55396 5.95392 9.44003 6.09275 9.29385 6.19042C9.14767 6.28809 8.97582 6.34022 8.80001 6.34022C8.6796 6.34625 8.55921 6.32772 8.44618 6.28576C8.33316 6.24379 8.22985 6.17927 8.14254 6.09612C8.05523 6.01297 7.98575 5.91293 7.93833 5.80209C7.89091 5.69124 7.86653 5.5719 7.86668 5.45133H7.91112ZM11.0222 11.1624C11.0222 11.2803 10.9754 11.3934 10.8921 11.4767C10.8087 11.5601 10.6957 11.6069 10.5778 11.6069H7.46668C7.3488 11.6069 7.23576 11.5601 7.15241 11.4767C7.06906 11.3934 7.02223 11.2803 7.02223 11.1624C7.02223 11.0446 7.06906 10.9315 7.15241 10.8482C7.23576 10.7648 7.3488 10.718 7.46668 10.718H8.35557V8.05133H7.91112C7.79325 8.05133 7.6802 8.00451 7.59685 7.92116C7.5135 7.83781 7.46668 7.72476 7.46668 7.60689C7.46668 7.48902 7.5135 7.37597 7.59685 7.29262C7.6802 7.20927 7.79325 7.16245 7.91112 7.16245H9.6889V10.718H10.5778C10.6957 10.718 10.8087 10.7648 10.8921 10.8482C10.9754 10.9315 11.0222 11.0446 11.0222 11.1624Z" fill="#B7B6B6"/>
</g>
<defs>
<clipPath id="clip0_523_9">
<rect width="16" height="16" fill="white" transform="translate(0.800049 0.495789)"/>
</clipPath>
</defs>
</svg>
