<svg width="31" height="31" viewBox="0 0 31 31" fill="none" xmlns="http://www.w3.org/2000/svg">
<g clip-path="url(#clip0_346_1837)">
<path d="M10.8 24.5755C11.4631 24.5755 12.099 24.3121 12.5678 23.8433C13.0367 23.3744 13.3 22.7385 13.3 22.0755C13.3 21.4125 13.0367 20.7766 12.5678 20.3077C12.099 19.8389 11.4631 19.5755 10.8 19.5755C10.137 19.5755 9.50112 19.8389 9.03228 20.3077C8.56344 20.7766 8.30005 21.4125 8.30005 22.0755C8.30005 22.7385 8.56344 23.3744 9.03228 23.8433C9.50112 24.3121 10.137 24.5755 10.8 24.5755V24.5755ZM23.3 24.5755C23.9631 24.5755 24.599 24.3121 25.0678 23.8433C25.5367 23.3744 25.8 22.7385 25.8 22.0755C25.8 21.4125 25.5367 20.7766 25.0678 20.3077C24.599 19.8389 23.9631 19.5755 23.3 19.5755C22.637 19.5755 22.0011 19.8389 21.5323 20.3077C21.0634 20.7766 20.8 21.4125 20.8 22.0755C20.8 22.7385 21.0634 23.3744 21.5323 23.8433C22.0011 24.3121 22.637 24.5755 23.3 24.5755V24.5755Z" stroke="#696969" stroke-width="2" stroke-miterlimit="1.5" stroke-linecap="round" stroke-linejoin="round"/>
<path d="M13.3625 22.0755H19.55V9.0755C19.55 8.87659 19.471 8.68582 19.3304 8.54517C19.1897 8.40452 18.999 8.3255 18.8 8.3255H2.05005M7.86255 22.0755H5.30005C5.20156 22.0755 5.10403 22.0561 5.01304 22.0184C4.92204 21.9807 4.83936 21.9255 4.76972 21.8558C4.70007 21.7862 4.64483 21.7035 4.60714 21.6125C4.56945 21.5215 4.55005 21.424 4.55005 21.3255V15.2005" stroke="#696969" stroke-width="2" stroke-linecap="round"/>
<path d="M3.30005 12.0755H8.30005" stroke="#696969" stroke-width="2" stroke-linecap="round" stroke-linejoin="round"/>
<path d="M19.55 12.0755H26.5625C26.7075 12.0755 26.8494 12.1176 26.9709 12.1966C27.0925 12.2755 27.1886 12.3881 27.2476 12.5205L29.485 17.5555C29.5277 17.6511 29.5498 17.7546 29.55 17.8593V21.3255C29.55 21.424 29.5307 21.5215 29.493 21.6125C29.4553 21.7035 29.4 21.7862 29.3304 21.8558C29.2607 21.9255 29.1781 21.9807 29.0871 22.0184C28.9961 22.0561 28.8985 22.0755 28.8 22.0755H26.425M19.55 22.0755H20.8" stroke="#696969" stroke-width="2" stroke-linecap="round"/>
</g>
<defs>
<clipPath id="clip0_346_1837">
<rect width="30" height="30" fill="white" transform="translate(0.800049 0.8255)"/>
</clipPath>
</defs>
</svg>
