<svg width="31" height="30" viewBox="0 0 31 30" fill="none" xmlns="http://www.w3.org/2000/svg">
<path d="M3.44824 6.5625V15.9375H27.8232V14.0625H16.5732V12.1875H27.8232V10.3125H16.5732V8.4375H27.8232V6.5625H3.44824ZM5.32324 7.5C5.57188 7.5 5.81034 7.59877 5.98615 7.77459C6.16197 7.9504 6.26074 8.18886 6.26074 8.4375C6.26074 8.68614 6.16197 8.9246 5.98615 9.10041C5.81034 9.27623 5.57188 9.375 5.32324 9.375C5.0746 9.375 4.83615 9.27623 4.66033 9.10041C4.48451 8.9246 4.38574 8.68614 4.38574 8.4375C4.38574 8.18886 4.48451 7.9504 4.66033 7.77459C4.83615 7.59877 5.0746 7.5 5.32324 7.5ZM9.07324 7.5C9.32188 7.5 9.56034 7.59877 9.73615 7.77459C9.91197 7.9504 10.0107 8.18886 10.0107 8.4375C10.0107 8.68614 9.91197 8.9246 9.73615 9.10041C9.56034 9.27623 9.32188 9.375 9.07324 9.375C8.8246 9.375 8.58614 9.27623 8.41033 9.10041C8.23451 8.9246 8.13574 8.68614 8.13574 8.4375C8.13574 8.18886 8.23451 7.9504 8.41033 7.77459C8.58614 7.59877 8.8246 7.5 9.07324 7.5ZM12.8232 7.5C13.0719 7.5 13.3103 7.59877 13.4862 7.77459C13.662 7.9504 13.7607 8.18886 13.7607 8.4375C13.7607 8.68614 13.662 8.9246 13.4862 9.10041C13.3103 9.27623 13.0719 9.375 12.8232 9.375C12.5746 9.375 12.3361 9.27623 12.1603 9.10041C11.9845 8.9246 11.8857 8.68614 11.8857 8.4375C11.8857 8.18886 11.9845 7.9504 12.1603 7.77459C12.3361 7.59877 12.5746 7.5 12.8232 7.5ZM7.19824 10.3125C7.44688 10.3125 7.68534 10.4113 7.86115 10.5871C8.03697 10.7629 8.13574 11.0014 8.13574 11.25C8.13574 11.4986 8.03697 11.7371 7.86115 11.9129C7.68534 12.0887 7.44688 12.1875 7.19824 12.1875C6.9496 12.1875 6.71115 12.0887 6.53533 11.9129C6.35951 11.7371 6.26074 11.4986 6.26074 11.25C6.26074 11.0014 6.35951 10.7629 6.53533 10.5871C6.71115 10.4113 6.9496 10.3125 7.19824 10.3125ZM10.9482 10.3125C11.1969 10.3125 11.4353 10.4113 11.6112 10.5871C11.787 10.7629 11.8857 11.0014 11.8857 11.25C11.8857 11.4986 11.787 11.7371 11.6112 11.9129C11.4353 12.0887 11.1969 12.1875 10.9482 12.1875C10.6996 12.1875 10.4611 12.0887 10.2853 11.9129C10.1095 11.7371 10.0107 11.4986 10.0107 11.25C10.0107 11.0014 10.1095 10.7629 10.2853 10.5871C10.4611 10.4113 10.6996 10.3125 10.9482 10.3125ZM14.6982 10.3125C14.9469 10.3125 15.1853 10.4113 15.3612 10.5871C15.537 10.7629 15.6357 11.0014 15.6357 11.25C15.6357 11.4986 15.537 11.7371 15.3612 11.9129C15.1853 12.0887 14.9469 12.1875 14.6982 12.1875C14.4496 12.1875 14.2111 12.0887 14.0353 11.9129C13.8595 11.7371 13.7607 11.4986 13.7607 11.25C13.7607 11.0014 13.8595 10.7629 14.0353 10.5871C14.2111 10.4113 14.4496 10.3125 14.6982 10.3125ZM5.32324 13.125C5.57188 13.125 5.81034 13.2238 5.98615 13.3996C6.16197 13.5754 6.26074 13.8139 6.26074 14.0625C6.26074 14.3111 6.16197 14.5496 5.98615 14.7254C5.81034 14.9012 5.57188 15 5.32324 15C5.0746 15 4.83615 14.9012 4.66033 14.7254C4.48451 14.5496 4.38574 14.3111 4.38574 14.0625C4.38574 13.8139 4.48451 13.5754 4.66033 13.3996C4.83615 13.2238 5.0746 13.125 5.32324 13.125ZM9.07324 13.125C9.32188 13.125 9.56034 13.2238 9.73615 13.3996C9.91197 13.5754 10.0107 13.8139 10.0107 14.0625C10.0107 14.3111 9.91197 14.5496 9.73615 14.7254C9.56034 14.9012 9.32188 15 9.07324 15C8.8246 15 8.58614 14.9012 8.41033 14.7254C8.23451 14.5496 8.13574 14.3111 8.13574 14.0625C8.13574 13.8139 8.23451 13.5754 8.41033 13.3996C8.58614 13.2238 8.8246 13.125 9.07324 13.125ZM12.8232 13.125C13.0719 13.125 13.3103 13.2238 13.4862 13.3996C13.662 13.5754 13.7607 13.8139 13.7607 14.0625C13.7607 14.3111 13.662 14.5496 13.4862 14.7254C13.3103 14.9012 13.0719 15 12.8232 15C12.5746 15 12.3361 14.9012 12.1603 14.7254C11.9845 14.5496 11.8857 14.3111 11.8857 14.0625C11.8857 13.8139 11.9845 13.5754 12.1603 13.3996C12.3361 13.2238 12.5746 13.125 12.8232 13.125ZM3.44824 17.8125V19.6875H27.8232V17.8125H3.44824ZM3.44824 21.5625V23.4375H27.8232V21.5625H3.44824Z" fill="#262626"/>
</svg>
