<svg width="25" height="24" viewBox="0 0 25 24" fill="none" xmlns="http://www.w3.org/2000/svg">
<g clip-path="url(#clip0_541_40)">
<path d="M8.07495 19C8.60538 19 9.11409 18.7893 9.48916 18.4142C9.86424 18.0391 10.075 17.5304 10.075 17C10.075 16.4696 9.86424 15.9609 9.48916 15.5858C9.11409 15.2107 8.60538 15 8.07495 15C7.54452 15 7.03581 15.2107 6.66074 15.5858C6.28566 15.9609 6.07495 16.4696 6.07495 17C6.07495 17.5304 6.28566 18.0391 6.66074 18.4142C7.03581 18.7893 7.54452 19 8.07495 19V19ZM18.075 19C18.6054 19 19.1141 18.7893 19.4892 18.4142C19.8642 18.0391 20.075 17.5304 20.075 17C20.075 16.4696 19.8642 15.9609 19.4892 15.5858C19.1141 15.2107 18.6054 15 18.075 15C17.5445 15 17.0358 15.2107 16.6607 15.5858C16.2857 15.9609 16.075 16.4696 16.075 17C16.075 17.5304 16.2857 18.0391 16.6607 18.4142C17.0358 18.7893 17.5445 19 18.075 19V19Z" stroke="black" stroke-width="1.5" stroke-miterlimit="1.5" stroke-linecap="round" stroke-linejoin="round"/>
<path d="M10.125 17H15.075V6.6C15.075 6.44087 15.0117 6.28826 14.8992 6.17574C14.7867 6.06321 14.6341 6 14.475 6H1.07495M5.72495 17H3.67495C3.59616 17 3.51814 16.9845 3.44534 16.9543C3.37255 16.9242 3.3064 16.88 3.25069 16.8243C3.19497 16.7685 3.15078 16.7024 3.12062 16.6296C3.09047 16.5568 3.07495 16.4788 3.07495 16.4V11.5" stroke="black" stroke-width="1.5" stroke-linecap="round"/>
<path d="M2.07495 9H6.07495" stroke="black" stroke-width="1.5" stroke-linecap="round" stroke-linejoin="round"/>
<path d="M15.075 9H20.685C20.8009 9.00003 20.9144 9.03367 21.0117 9.09685C21.1089 9.16003 21.1858 9.25005 21.233 9.356L23.023 13.384C23.0571 13.4605 23.0748 13.5433 23.075 13.627V16.4C23.075 16.4788 23.0594 16.5568 23.0293 16.6296C22.9991 16.7024 22.9549 16.7685 22.8992 16.8243C22.8435 16.88 22.7774 16.9242 22.7046 16.9543C22.6318 16.9845 22.5537 17 22.475 17H20.575M15.075 17H16.075" stroke="black" stroke-width="1.5" stroke-linecap="round"/>
</g>
<defs>
<clipPath id="clip0_541_40">
<rect width="24" height="24" fill="white" transform="translate(0.0749512)"/>
</clipPath>
</defs>
</svg>
