<svg width="41" height="41" viewBox="0 0 41 41" fill="none" xmlns="http://www.w3.org/2000/svg">
<path fill-rule="evenodd" clip-rule="evenodd" d="M12.2018 1.0365C14.3536 0.938322 15.0396 0.916504 20.5209 0.916504C26.0021 0.916504 26.6882 0.94014 28.8381 1.0365C30.988 1.13287 32.4556 1.47287 33.7397 1.96559C35.0843 2.46923 36.3042 3.2565 37.3131 4.27469C38.3404 5.27287 39.1328 6.48014 39.6391 7.81469C40.1381 9.08741 40.4793 10.542 40.5784 12.6692C40.6774 14.8056 40.6994 15.4856 40.6994 20.9165C40.6994 26.3492 40.6756 27.0292 40.5784 29.162C40.4811 31.2892 40.1381 32.7438 39.6391 34.0165C39.1328 35.3512 38.3391 36.5605 37.3131 37.5601C36.3042 38.5783 35.0843 39.3638 33.7397 39.8656C32.4556 40.3601 30.988 40.6983 28.8418 40.7965C26.6882 40.8947 26.0021 40.9165 20.5209 40.9165C15.0396 40.9165 14.3536 40.8929 12.2018 40.7965C10.0555 40.7001 8.58798 40.3601 7.30389 39.8656C5.95729 39.3637 4.73722 38.577 3.72862 37.5601C2.70204 36.5614 1.90762 35.3527 1.40074 34.0183C0.903616 32.7456 0.562415 31.291 0.463357 29.1638C0.364298 27.0274 0.342285 26.3474 0.342285 20.9165C0.342285 15.4838 0.366133 14.8038 0.463357 12.6729C0.560581 10.542 0.903616 9.08741 1.40074 7.81469C1.90837 6.48029 2.7034 5.27162 3.73045 4.27287C4.73762 3.2556 5.95646 2.46822 7.30206 1.96559C8.58615 1.47287 10.0537 1.13469 12.1999 1.0365H12.2018ZM28.6748 4.6365C26.5469 4.54014 25.9085 4.52014 20.5209 4.52014C15.1332 4.52014 14.4948 4.54014 12.3669 4.6365C10.3986 4.72559 9.33092 5.05105 8.61917 5.32559C7.67811 5.68923 7.00488 6.12014 6.29863 6.82014C5.62915 7.46569 5.11393 8.25156 4.79074 9.12014C4.51375 9.8256 4.18539 10.8838 4.0955 12.8347C3.99828 14.9438 3.9781 15.5765 3.9781 20.9165C3.9781 26.2565 3.99828 26.8892 4.0955 28.9983C4.18539 30.9492 4.51375 32.0074 4.79074 32.7129C5.1136 33.5801 5.62907 34.3674 6.29863 35.0129C6.94985 35.6765 7.74415 36.1874 8.61917 36.5074C9.33092 36.782 10.3986 37.1074 12.3669 37.1965C14.4948 37.2929 15.1313 37.3129 20.5209 37.3129C25.9104 37.3129 26.5469 37.2929 28.6748 37.1965C30.6432 37.1074 31.7108 36.782 32.4226 36.5074C33.3636 36.1438 34.0368 35.7129 34.7431 35.0129C35.4126 34.3674 35.9281 33.5801 36.251 32.7129C36.528 32.0074 36.8563 30.9492 36.9462 28.9983C37.0434 26.8892 37.0636 26.2565 37.0636 20.9165C37.0636 15.5765 37.0434 14.9438 36.9462 12.8347C36.8563 10.8838 36.528 9.8256 36.251 9.12014C35.8841 8.18741 35.4493 7.52014 34.7431 6.82014C34.0917 6.15663 33.2989 5.64598 32.4226 5.32559C31.7108 5.05105 30.6432 4.72559 28.6748 4.6365V4.6365ZM17.9435 27.082C19.3829 27.6758 20.9857 27.756 22.4781 27.3087C23.9704 26.8615 25.2599 25.9145 26.1261 24.6297C26.9924 23.3448 27.3817 21.8017 27.2276 20.264C27.0735 18.7262 26.3855 17.2892 25.2812 16.1983C24.5772 15.501 23.726 14.9671 22.7888 14.635C21.8516 14.3028 20.8518 14.1808 19.8614 14.2776C18.8709 14.3745 17.9144 14.6877 17.0608 15.1949C16.2071 15.7021 15.4776 16.3906 14.9246 17.2108C14.3716 18.031 14.009 18.9625 13.8629 19.9383C13.7167 20.914 13.7907 21.9098 14.0794 22.8538C14.3681 23.7979 14.8644 24.6667 15.5326 25.3978C16.2007 26.1289 17.0241 26.7041 17.9435 27.082ZM13.1869 13.6474C14.15 12.6928 15.2934 11.9356 16.5517 11.419C17.8101 10.9024 19.1588 10.6365 20.5209 10.6365C21.8829 10.6365 23.2316 10.9024 24.49 11.419C25.7484 11.9356 26.8917 12.6928 27.8549 13.6474C28.818 14.602 29.582 15.7353 30.1032 16.9825C30.6244 18.2297 30.8927 19.5665 30.8927 20.9165C30.8927 22.2665 30.6244 23.6033 30.1032 24.8505C29.582 26.0977 28.818 27.231 27.8549 28.1856C25.9098 30.1135 23.2716 31.1966 20.5209 31.1966C17.7701 31.1966 15.132 30.1135 13.1869 28.1856C11.2418 26.2577 10.149 23.6429 10.149 20.9165C10.149 18.1901 11.2418 15.5753 13.1869 13.6474V13.6474ZM33.193 12.1674C33.4317 11.9443 33.6227 11.6759 33.7549 11.3783C33.887 11.0806 33.9576 10.7597 33.9624 10.4346C33.9672 10.1094 33.9061 9.78659 33.7827 9.48525C33.6594 9.18391 33.4763 8.91016 33.2443 8.68021C33.0123 8.45026 32.7361 8.26879 32.4321 8.14654C32.128 8.02428 31.8023 7.96373 31.4743 7.96847C31.1462 7.97321 30.8224 8.04315 30.5221 8.17413C30.2218 8.30512 29.9511 8.4945 29.726 8.73105C29.2881 9.1911 29.0484 9.80218 29.0577 10.4346C29.067 11.0669 29.3246 11.6708 29.7758 12.118C30.227 12.5652 30.8363 12.8206 31.4743 12.8298C32.1123 12.839 32.7288 12.6014 33.193 12.1674V12.1674Z" fill="black"/>
</svg>
