<svg width="17" height="17" viewBox="0 0 17 17" fill="none" xmlns="http://www.w3.org/2000/svg">
<path d="M8.3313 2.85846H9.2688C9.35213 2.85846 9.3938 2.90013 9.3938 2.98346V13.9835C9.3938 14.0668 9.35213 14.1085 9.2688 14.1085H8.3313C8.24797 14.1085 8.2063 14.0668 8.2063 13.9835V2.98346C8.2063 2.90013 8.24797 2.85846 8.3313 2.85846Z" fill="black"/>
<path d="M3.55005 7.88971H14.05C14.1334 7.88971 14.175 7.93138 14.175 8.01471V8.95221C14.175 9.03554 14.1334 9.07721 14.05 9.07721H3.55005C3.46672 9.07721 3.42505 9.03554 3.42505 8.95221V8.01471C3.42505 7.93138 3.46672 7.88971 3.55005 7.88971Z" fill="black"/>
</svg>
