<svg width="31" height="41" viewBox="0 0 31 41" fill="none" xmlns="http://www.w3.org/2000/svg">
<path d="M16.5171 0.916504C8.29431 0.916504 0.168945 6.39795 0.168945 15.2696C0.168945 20.9113 3.34241 24.1168 5.26573 24.1168C6.05942 24.1168 6.51588 21.905 6.51588 21.2806C6.51588 20.5356 4.61693 18.9482 4.61693 15.8466C4.61693 9.40345 9.52138 4.83494 15.8683 4.83494C21.3254 4.83494 25.3644 7.9366 25.3644 13.6347C25.3644 17.8904 23.6577 25.8722 18.1276 25.8722C16.1325 25.8722 14.4246 24.4297 14.4246 22.3627C14.4246 19.3329 16.5402 16.4005 16.5402 13.2744C16.5402 7.96994 9.01491 8.9316 9.01491 15.3426C9.01491 16.689 9.18288 18.1789 9.78424 19.406C8.67769 24.1668 6.41844 31.2587 6.41844 36.1632C6.41844 37.6775 6.63513 39.1687 6.77874 40.683C7.05057 40.9881 6.91465 40.9561 7.33137 40.8035C11.3703 35.2733 11.2267 34.1924 13.0539 26.9556C14.0399 28.8315 16.5876 29.8406 18.6071 29.8406C27.1171 29.8406 30.9407 21.546 30.9407 14.0694C30.9407 6.11202 24.0642 0.919068 16.5158 0.919068L16.5171 0.916504Z" fill="black"/>
</svg>
