<svg width="23" height="23" viewBox="0 0 23 23" fill="none" xmlns="http://www.w3.org/2000/svg">
<g clip-path="url(#clip0_346_606)">
<path d="M11.75 0.8125C5.67486 0.8125 0.75 5.73736 0.75 11.8125C0.75 17.8876 5.67486 22.8125 11.75 22.8125C17.8251 22.8125 22.75 17.8876 22.75 11.8125C22.75 5.73736 17.8251 0.8125 11.75 0.8125ZM11.7277 6.92896C12.7423 6.9423 13.5827 7.76828 13.8619 8.82079C13.9684 9.25023 13.9804 9.68591 13.8731 10.1408C13.7113 10.7811 13.3873 11.4066 12.7837 11.7909L13.6634 12.2088L15.7538 13.2209C15.9591 13.3089 16.0617 13.4849 16.0617 13.7489V15.7724C16.0617 16.1897 16.0948 16.5496 15.5776 16.6967H7.87785C7.3804 16.6896 7.35979 16.1857 7.37145 15.7724V13.7489C7.37145 13.4849 7.48161 13.3013 7.70161 13.1986L9.85745 12.2088L10.694 11.8125C10.3127 11.5632 10.012 11.2188 9.79198 10.7788C9.5278 10.1979 9.42306 9.44389 9.61576 8.75461C9.85938 7.82031 10.6223 6.9809 11.7277 6.92896ZM8.14183 7.85259C8.46452 7.85259 8.7576 7.9482 9.02158 8.13887C8.94837 8.34416 8.88637 8.5607 8.83489 8.78805C8.78357 9.01535 8.75758 9.25335 8.75758 9.5027C8.75758 9.86939 8.80884 10.2213 8.9115 10.5587C9.01415 10.896 9.16102 11.2043 9.35174 11.483C9.26372 11.6003 9.14665 11.7029 8.99996 11.7909L7.37141 12.539C7.15141 12.6563 6.97543 12.8209 6.84343 13.0336C6.71143 13.2462 6.64562 13.4849 6.64562 13.7489V15.7724H5.04005C4.80713 15.7688 4.64981 15.5341 4.64371 15.289V13.3749C4.64371 13.1549 4.72408 13.008 4.88541 12.9346L7.32758 11.8125C6.6966 11.4246 6.39219 10.7236 6.36007 9.94294C6.37118 8.98114 7.00159 7.93249 8.14183 7.85259ZM15.3575 7.85259C16.3711 7.86861 17.1033 8.87359 17.14 9.94296C17.1344 10.6505 16.8582 11.3338 16.2156 11.7909L18.6139 12.9347C18.7752 13.0227 18.8556 13.1696 18.8556 13.3749V15.289C18.8532 15.5162 18.7305 15.7493 18.4599 15.7724H16.8098V13.7489C16.8098 13.4849 16.744 13.2462 16.612 13.0336C16.48 12.8209 16.304 12.6563 16.084 12.539C15.4001 12.2211 14.6146 11.993 14.1037 11.4607C14.485 10.8741 14.6755 10.2214 14.6755 9.5027C14.6755 9.04803 14.5952 8.60044 14.4338 8.16044C14.6988 7.98553 15.0124 7.8575 15.3575 7.85259Z" fill="#FBDA65"/>
</g>
<defs>
<clipPath id="clip0_346_606">
<rect width="22" height="22" fill="white" transform="translate(0.75 0.8125)"/>
</clipPath>
</defs>
</svg>
